<svg width="45" height="52" viewBox="0 0 45 52" fill="none" xmlns="http://www.w3.org/2000/svg">
<path d="M34 21.5002V13.1783C34 12.3768 33.9993 11.9759 33.9019 11.6029C33.8155 11.2724 33.6737 10.9596 33.4818 10.677C33.2653 10.358 32.9643 10.0935 32.3611 9.56574L25.1611 3.26574C24.0412 2.28581 23.4813 1.7961 22.8511 1.60973C22.2958 1.44552 21.7039 1.44552 21.1486 1.60973C20.5189 1.79595 19.9598 2.28521 18.8415 3.26365L11.6392 9.56574C11.036 10.0935 10.7351 10.358 10.5186 10.677C10.3267 10.9596 10.1838 11.2724 10.0975 11.6029C10 11.9759 10 12.3768 10 13.1783V21.5002C10 22.8981 10 23.5967 10.2284 24.148C10.5328 24.8831 11.1165 25.4678 11.8516 25.7723C12.4029 26.0007 13.1018 26.0007 14.4996 26.0007C15.8974 26.0007 16.5971 26.0007 17.1484 25.7723C17.8835 25.4678 18.467 24.8832 18.7715 24.1482C18.9998 23.5969 19 22.8979 19 21.5001V20.0001C19 18.3433 20.3431 17.0001 22 17.0001C23.6569 17.0001 25 18.3433 25 20.0001V21.5001C25 22.8979 25 23.5968 25.2284 24.1482C25.5328 24.8832 26.1165 25.4678 26.8516 25.7723C27.4029 26.0007 28.1018 26.0007 29.4996 26.0007C30.8974 26.0007 31.5971 26.0007 32.1484 25.7723C32.8835 25.4678 33.467 24.8831 33.7715 24.148C33.9998 23.5967 34 22.8981 34 21.5002Z" stroke="#000F6D" stroke-width="2" stroke-linecap="round" stroke-linejoin="round"/>
<rect y="48" width="45" height="4" rx="2" fill="#000F6D"/>
<path d="M11.2007 42.15C11.0407 42.15 10.9057 42.095 10.7957 41.985C10.6957 41.865 10.6557 41.725 10.6757 41.565L11.3207 36.525C11.3407 36.325 11.4157 36.175 11.5457 36.075C11.6857 35.975 11.8357 35.925 11.9957 35.925C12.1557 35.925 12.3007 35.965 12.4307 36.045C12.5707 36.115 12.6657 36.225 12.7157 36.375L13.9007 39.735C13.9507 39.855 14.0007 39.915 14.0507 39.915C14.1107 39.915 14.1607 39.855 14.2007 39.735L15.3857 36.375C15.4357 36.225 15.5257 36.115 15.6557 36.045C15.7957 35.965 15.9407 35.925 16.0907 35.925C16.2507 35.925 16.4007 35.975 16.5407 36.075C16.6807 36.175 16.7607 36.325 16.7807 36.525L17.4257 41.565C17.4457 41.725 17.4057 41.865 17.3057 41.985C17.2057 42.095 17.0707 42.15 16.9007 42.15C16.7707 42.15 16.6507 42.105 16.5407 42.015C16.4407 41.925 16.3807 41.81 16.3607 41.67L16.0307 37.965C16.0207 37.845 15.9807 37.785 15.9107 37.785C15.8407 37.785 15.7907 37.835 15.7607 37.935L14.6807 40.92C14.6207 41.08 14.5357 41.195 14.4257 41.265C14.3157 41.335 14.1907 41.37 14.0507 41.37C13.7807 41.37 13.5757 41.22 13.4357 40.92L12.3407 37.935C12.3007 37.835 12.2507 37.785 12.1907 37.785C12.1507 37.785 12.1207 37.845 12.1007 37.965L11.7407 41.67C11.7307 41.81 11.6707 41.925 11.5607 42.015C11.4607 42.105 11.3407 42.15 11.2007 42.15ZM19.1322 42C18.8822 42 18.6822 41.925 18.5322 41.775C18.3822 41.625 18.3072 41.425 18.3072 41.175V36.78C18.3072 36.55 18.3822 36.365 18.5322 36.225C18.6922 36.075 18.8772 36 19.0872 36H21.3522C21.5222 36 21.6422 36.045 21.7122 36.135C21.7922 36.215 21.8322 36.32 21.8322 36.45C21.8322 36.57 21.7872 36.675 21.6972 36.765C21.6172 36.855 21.5022 36.9 21.3522 36.9H19.7472C19.4872 36.9 19.3572 37.03 19.3572 37.29V38.115C19.3572 38.375 19.4772 38.505 19.7172 38.505H21.2022C21.3722 38.505 21.4922 38.55 21.5622 38.64C21.6422 38.73 21.6822 38.835 21.6822 38.955C21.6822 39.065 21.6372 39.17 21.5472 39.27C21.4672 39.36 21.3522 39.405 21.2022 39.405H19.7172C19.4772 39.405 19.3572 39.53 19.3572 39.78V40.695C19.3572 40.955 19.4822 41.085 19.7322 41.085H21.5022C21.6722 41.085 21.7922 41.135 21.8622 41.235C21.9422 41.325 21.9822 41.43 21.9822 41.55C21.9822 41.67 21.9372 41.775 21.8472 41.865C21.7672 41.955 21.6522 42 21.5022 42H19.1322ZM23.3969 42.15C23.2669 42.15 23.1469 42.11 23.0369 42.03C22.9269 41.95 22.8719 41.83 22.8719 41.67V36.615C22.8719 36.385 22.9419 36.215 23.0819 36.105C23.2319 35.985 23.3919 35.925 23.5619 35.925C23.8219 35.925 24.0119 36.025 24.1319 36.225L26.6069 40.11C26.6569 40.19 26.7119 40.23 26.7719 40.23C26.8619 40.23 26.9069 40.16 26.9069 40.02L26.8469 36.405C26.8469 36.245 26.9019 36.125 27.0119 36.045C27.1219 35.965 27.2419 35.925 27.3719 35.925C27.5019 35.925 27.6219 35.965 27.7319 36.045C27.8419 36.125 27.8969 36.245 27.8969 36.405V41.49C27.8969 41.71 27.8319 41.875 27.7019 41.985C27.5719 42.095 27.4219 42.15 27.2519 42.15C27.1319 42.15 27.0119 42.12 26.8919 42.06C26.7819 42.01 26.6869 41.925 26.6069 41.805L24.1769 38.025C24.1269 37.945 24.0719 37.905 24.0119 37.905C23.9219 37.905 23.8769 37.975 23.8769 38.115L23.9219 41.67C23.9219 41.83 23.8669 41.95 23.7569 42.03C23.6569 42.11 23.5369 42.15 23.3969 42.15ZM33.069 36.42C33.069 36.26 33.124 36.14 33.234 36.06C33.344 35.97 33.464 35.925 33.594 35.925C33.724 35.925 33.839 35.965 33.939 36.045C34.049 36.125 34.104 36.25 34.104 36.42V39.705C34.104 40.295 33.979 40.77 33.729 41.13C33.479 41.49 33.159 41.75 32.769 41.91C32.379 42.07 31.969 42.15 31.539 42.15C31.059 42.15 30.624 42.07 30.234 41.91C29.854 41.75 29.554 41.49 29.334 41.13C29.114 40.76 29.004 40.28 29.004 39.69V36.42C29.004 36.25 29.059 36.13 29.169 36.06C29.279 35.98 29.399 35.94 29.529 35.94C29.659 35.94 29.774 35.98 29.874 36.06C29.984 36.13 30.039 36.25 30.039 36.42V39.69C30.039 40.22 30.169 40.61 30.429 40.86C30.699 41.1 31.069 41.22 31.539 41.22C31.959 41.22 32.319 41.1 32.619 40.86C32.919 40.61 33.069 40.225 33.069 39.705V36.42Z" fill="#000F6D"/>
</svg>
