<svg width="37" height="51" viewBox="0 0 37 51" fill="none" xmlns="http://www.w3.org/2000/svg">
<path d="M27.5895 10.7819L27.147 10.5357C27.0783 10.4975 27.0445 10.4783 27.0113 10.4584C26.6813 10.2607 26.4032 9.98764 26.2002 9.6609C26.1798 9.62802 26.1606 9.59355 26.1212 9.52541C26.0819 9.45735 26.062 9.42287 26.0437 9.38873C25.8616 9.0488 25.7632 8.66998 25.7573 8.28441C25.7567 8.24565 25.7568 8.20604 25.7581 8.1273L25.7668 7.61344C25.7806 6.79114 25.7876 6.37871 25.672 6.00858C25.5693 5.67981 25.3976 5.37699 25.1683 5.12001C24.9091 4.82953 24.5503 4.62229 23.8319 4.20834L23.2353 3.8645C22.5189 3.4517 22.1606 3.24523 21.7803 3.16652C21.4438 3.09688 21.0966 3.10011 20.7614 3.17537C20.383 3.26031 20.0292 3.47216 19.322 3.89562L19.318 3.89754L18.8905 4.15354C18.8229 4.19401 18.7886 4.21442 18.7548 4.23326C18.4185 4.42021 18.0431 4.52358 17.6586 4.53592C17.6198 4.53717 17.5804 4.53717 17.5016 4.53717C17.4232 4.53717 17.3821 4.53717 17.3435 4.53592C16.9581 4.52353 16.5819 4.41959 16.2452 4.23187C16.2112 4.21295 16.1776 4.19238 16.1099 4.15171L15.6796 3.89341C14.9676 3.46594 14.6111 3.25188 14.2306 3.16652C13.894 3.091 13.5456 3.08891 13.2079 3.15944C12.8266 3.23908 12.4682 3.44708 11.7515 3.86308L11.7483 3.8645L11.159 4.2065L11.1525 4.21049C10.4422 4.62274 10.0862 4.82937 9.82913 5.11867C9.60105 5.37539 9.43056 5.67773 9.32852 6.00563C9.21318 6.37627 9.21933 6.78958 9.23323 7.61576L9.24186 8.12889C9.24317 8.20659 9.24543 8.24521 9.24487 8.28342C9.23915 8.66978 9.13937 9.04937 8.95677 9.38991C8.93872 9.42359 8.91926 9.45727 8.8804 9.52453C8.84152 9.59185 8.82269 9.62533 8.80252 9.65782C8.59865 9.9863 8.31925 10.261 7.98719 10.459C7.95435 10.4786 7.91973 10.4974 7.85172 10.5351L7.41483 10.7772C6.68793 11.18 6.32457 11.3816 6.06017 11.6685C5.82627 11.9223 5.64958 12.2233 5.54172 12.5512C5.41979 12.9218 5.4199 13.3373 5.42178 14.1684L5.42333 14.8476C5.4252 15.6731 5.42777 16.0856 5.54997 16.4537C5.65807 16.7793 5.83348 17.0786 6.06607 17.3308C6.32898 17.6159 6.68872 17.8163 7.41011 18.2176L7.8431 18.4585C7.91679 18.4995 7.95387 18.5197 7.98941 18.5411C8.31845 18.7392 8.59566 19.0132 8.7978 19.3398C8.81964 19.3751 8.8406 19.4117 8.88252 19.4849C8.92393 19.5573 8.94511 19.5934 8.96426 19.6297C9.14148 19.9652 9.23638 20.338 9.24285 20.7174C9.24354 20.7584 9.24295 20.7999 9.24154 20.8832L9.23323 21.3757C9.21923 22.2047 9.21313 22.6197 9.32916 22.9913C9.4318 23.3201 9.60335 23.6229 9.83267 23.8799C10.0919 24.1704 10.4512 24.3775 11.1696 24.7914L11.7662 25.1352C12.4826 25.548 12.8406 25.7542 13.2209 25.8329C13.5574 25.9026 13.9048 25.8999 14.24 25.8246C14.6189 25.7396 14.974 25.527 15.6832 25.1023L16.1107 24.8463C16.1784 24.8058 16.2126 24.7855 16.2465 24.7667C16.5827 24.5797 16.9577 24.4758 17.3423 24.4635C17.381 24.4622 17.4204 24.4622 17.4993 24.4622C17.5783 24.4622 17.6177 24.4622 17.6565 24.4635C18.0419 24.4759 18.4192 24.5801 18.7559 24.7678C18.7856 24.7844 18.8153 24.8022 18.8674 24.8335L19.3219 25.1064C20.034 25.5339 20.3898 25.7473 20.7703 25.8327C21.1069 25.9082 21.4556 25.9113 21.7933 25.8408C22.1745 25.7612 22.5336 25.5527 23.2499 25.137L23.8481 24.7898C24.5588 24.3773 24.9152 24.1705 25.1723 23.8811C25.4004 23.6243 25.5711 23.3221 25.6732 22.9942C25.7877 22.6263 25.7808 22.2162 25.7671 21.4019L25.7581 20.8708C25.7568 20.7931 25.7567 20.7545 25.7572 20.7163C25.763 20.3299 25.8611 19.95 26.0437 19.6095C26.0617 19.5759 26.0813 19.542 26.1201 19.4749C26.1589 19.4076 26.1791 19.374 26.1992 19.3415C26.4031 19.0131 26.6828 18.7381 27.0148 18.5401C27.0473 18.5208 27.0807 18.5023 27.1471 18.4655L27.1494 18.4644L27.5863 18.2223C28.3131 17.8195 28.6772 17.6177 28.9416 17.3308C29.1755 17.077 29.352 16.7764 29.4598 16.4486C29.581 16.0801 29.5801 15.667 29.5782 14.8457L29.5767 14.1519C29.5748 13.3264 29.5738 12.9139 29.4516 12.5459C29.3435 12.2202 29.1671 11.9209 28.9345 11.6687C28.6718 11.3838 28.3116 11.1834 27.5916 10.7829L27.5895 10.7819Z" stroke="#000F6D" stroke-width="2" stroke-linecap="round" stroke-linejoin="round"/>
<path d="M12.6671 14.5C12.6671 17.1693 14.831 19.3333 17.5004 19.3333C20.1698 19.3333 22.3337 17.1693 22.3337 14.5C22.3337 11.8306 20.1698 9.66662 17.5004 9.66662C14.831 9.66662 12.6671 11.8306 12.6671 14.5Z" stroke="#000F6D" stroke-width="2" stroke-linecap="round" stroke-linejoin="round"/>
<path d="M3.56984 42.15C2.98984 42.15 2.45984 42.015 1.97984 41.745C1.50984 41.465 1.13484 41.09 0.854843 40.62C0.574843 40.14 0.434843 39.6 0.434843 39C0.434843 38.37 0.574843 37.82 0.854843 37.35C1.13484 36.88 1.50984 36.515 1.97984 36.255C2.45984 35.985 2.98984 35.85 3.56984 35.85C4.14984 35.85 4.66984 35.985 5.12984 36.255C5.59984 36.515 5.96984 36.88 6.23984 37.35C6.51984 37.82 6.65984 38.37 6.65984 39C6.65984 39.6 6.51984 40.14 6.23984 40.62C5.96984 41.09 5.59984 41.465 5.12984 41.745C4.66984 42.015 4.14984 42.15 3.56984 42.15ZM3.56984 41.235C3.96984 41.235 4.31984 41.135 4.61984 40.935C4.92984 40.725 5.16984 40.45 5.33984 40.11C5.50984 39.77 5.59484 39.4 5.59484 39C5.59484 38.36 5.40484 37.83 5.02484 37.41C4.64484 36.99 4.15984 36.78 3.56984 36.78C2.96984 36.78 2.47984 36.99 2.09984 37.41C1.71984 37.83 1.52984 38.36 1.52984 39C1.52984 39.4 1.61484 39.77 1.78484 40.11C1.95484 40.45 2.19484 40.725 2.50484 40.935C2.81484 41.135 3.16984 41.235 3.56984 41.235ZM7.9925 42.15C7.8625 42.15 7.7425 42.1 7.6325 42C7.5225 41.91 7.4675 41.8 7.4675 41.67V36.825C7.4675 36.555 7.5525 36.35 7.7225 36.21C7.8925 36.07 8.0825 36 8.2925 36H9.8825C10.2225 36 10.5375 36.07 10.8275 36.21C11.1275 36.34 11.3675 36.535 11.5475 36.795C11.7275 37.055 11.8175 37.375 11.8175 37.755C11.8175 38.345 11.6275 38.815 11.2475 39.165C10.8775 39.515 10.4275 39.69 9.8975 39.69H8.8925C8.6425 39.69 8.5175 39.84 8.5175 40.14V41.67C8.5175 41.8 8.4625 41.91 8.3525 42C8.2525 42.1 8.1325 42.15 7.9925 42.15ZM8.8175 38.79H9.7325C9.9825 38.79 10.2225 38.715 10.4525 38.565C10.6925 38.415 10.8125 38.155 10.8125 37.785C10.8125 37.495 10.7025 37.28 10.4825 37.14C10.2725 36.99 10.0425 36.915 9.7925 36.915H8.8625C8.6125 36.915 8.4875 37.035 8.4875 37.275V38.385C8.4875 38.655 8.5975 38.79 8.8175 38.79ZM14.2863 42.15C14.1263 42.15 13.9963 42.105 13.8963 42.015C13.8063 41.925 13.7613 41.81 13.7613 41.67V37.305C13.7613 37.055 13.6313 36.93 13.3713 36.93H12.4263C12.1163 36.93 11.9613 36.775 11.9613 36.465C11.9613 36.155 12.1163 36 12.4263 36H16.1313C16.2713 36 16.3863 36.045 16.4763 36.135C16.5663 36.215 16.6113 36.325 16.6113 36.465C16.6113 36.605 16.5663 36.72 16.4763 36.81C16.3863 36.89 16.2713 36.93 16.1313 36.93H15.2013C14.9413 36.93 14.8113 37.055 14.8113 37.305V41.67C14.8113 41.81 14.7613 41.925 14.6613 42.015C14.5713 42.105 14.4463 42.15 14.2863 42.15ZM17.7975 42.15C17.6675 42.15 17.5475 42.105 17.4375 42.015C17.3275 41.935 17.2725 41.815 17.2725 41.655V36.42C17.2725 36.25 17.3275 36.125 17.4375 36.045C17.5475 35.965 17.6675 35.925 17.7975 35.925C17.9375 35.925 18.0575 35.965 18.1575 36.045C18.2675 36.125 18.3225 36.25 18.3225 36.42V41.655C18.3225 41.815 18.2675 41.935 18.1575 42.015C18.0575 42.105 17.9375 42.15 17.7975 42.15ZM22.3413 42.15C21.7613 42.15 21.2313 42.015 20.7513 41.745C20.2813 41.465 19.9063 41.09 19.6263 40.62C19.3463 40.14 19.2063 39.6 19.2063 39C19.2063 38.37 19.3463 37.82 19.6263 37.35C19.9063 36.88 20.2813 36.515 20.7513 36.255C21.2313 35.985 21.7613 35.85 22.3413 35.85C22.9213 35.85 23.4413 35.985 23.9013 36.255C24.3713 36.515 24.7413 36.88 25.0113 37.35C25.2913 37.82 25.4313 38.37 25.4313 39C25.4313 39.6 25.2913 40.14 25.0113 40.62C24.7413 41.09 24.3713 41.465 23.9013 41.745C23.4413 42.015 22.9213 42.15 22.3413 42.15ZM22.3413 41.235C22.7413 41.235 23.0913 41.135 23.3913 40.935C23.7013 40.725 23.9413 40.45 24.1113 40.11C24.2813 39.77 24.3663 39.4 24.3663 39C24.3663 38.36 24.1763 37.83 23.7963 37.41C23.4163 36.99 22.9313 36.78 22.3413 36.78C21.7413 36.78 21.2513 36.99 20.8713 37.41C20.4913 37.83 20.3013 38.36 20.3013 39C20.3013 39.4 20.3863 39.77 20.5563 40.11C20.7263 40.45 20.9663 40.725 21.2763 40.935C21.5863 41.135 21.9413 41.235 22.3413 41.235ZM26.7639 42.15C26.6339 42.15 26.5139 42.11 26.4039 42.03C26.2939 41.95 26.2389 41.83 26.2389 41.67V36.615C26.2389 36.385 26.3089 36.215 26.4489 36.105C26.5989 35.985 26.7589 35.925 26.9289 35.925C27.1889 35.925 27.3789 36.025 27.4989 36.225L29.9739 40.11C30.0239 40.19 30.0789 40.23 30.1389 40.23C30.2289 40.23 30.2739 40.16 30.2739 40.02L30.2139 36.405C30.2139 36.245 30.2689 36.125 30.3789 36.045C30.4889 35.965 30.6089 35.925 30.7389 35.925C30.8689 35.925 30.9889 35.965 31.0989 36.045C31.2089 36.125 31.2639 36.245 31.2639 36.405V41.49C31.2639 41.71 31.1989 41.875 31.0689 41.985C30.9389 42.095 30.7889 42.15 30.6189 42.15C30.4989 42.15 30.3789 42.12 30.2589 42.06C30.1489 42.01 30.0539 41.925 29.9739 41.805L27.5439 38.025C27.4939 37.945 27.4389 37.905 27.3789 37.905C27.2889 37.905 27.2439 37.975 27.2439 38.115L27.2889 41.67C27.2889 41.83 27.2339 41.95 27.1239 42.03C27.0239 42.11 26.9039 42.15 26.7639 42.15ZM34.321 42.15C33.881 42.15 33.456 42.075 33.046 41.925C32.646 41.775 32.336 41.56 32.116 41.28C32.036 41.17 31.996 41.06 31.996 40.95C31.996 40.82 32.046 40.71 32.146 40.62C32.256 40.52 32.376 40.47 32.506 40.47C32.576 40.47 32.646 40.485 32.716 40.515C32.786 40.535 32.841 40.575 32.881 40.635C33.041 40.825 33.256 40.975 33.526 41.085C33.806 41.195 34.096 41.25 34.396 41.25C34.746 41.25 35.031 41.165 35.251 40.995C35.481 40.825 35.596 40.6 35.596 40.32C35.596 40 35.461 39.775 35.191 39.645C34.931 39.505 34.626 39.405 34.276 39.345C33.956 39.285 33.631 39.2 33.301 39.09C32.971 38.97 32.696 38.8 32.476 38.58C32.256 38.35 32.146 38.04 32.146 37.65C32.146 37.12 32.346 36.7 32.746 36.39C33.156 36.08 33.701 35.925 34.381 35.925C34.741 35.925 35.071 35.98 35.371 36.09C35.671 36.19 35.921 36.33 36.121 36.51C36.241 36.61 36.301 36.735 36.301 36.885C36.301 37.005 36.256 37.11 36.166 37.2C36.076 37.29 35.971 37.335 35.851 37.335C35.731 37.335 35.616 37.295 35.506 37.215C35.186 36.955 34.791 36.825 34.321 36.825C33.521 36.825 33.121 37.095 33.121 37.635C33.121 37.895 33.241 38.075 33.481 38.175C33.731 38.265 34.066 38.36 34.486 38.46C34.686 38.5 34.901 38.56 35.131 38.64C35.371 38.71 35.601 38.815 35.821 38.955C36.041 39.085 36.221 39.265 36.361 39.495C36.501 39.715 36.571 39.995 36.571 40.335C36.571 40.875 36.361 41.315 35.941 41.655C35.531 41.985 34.991 42.15 34.321 42.15Z" fill="#000F6D"/>
</svg>
