<svg width="45" height="52" viewBox="0 0 45 52" fill="none" xmlns="http://www.w3.org/2000/svg">
<path d="M8.56984 42.15C7.98984 42.15 7.45984 42.015 6.97984 41.745C6.50984 41.465 6.13484 41.09 5.85484 40.62C5.57484 40.14 5.43484 39.6 5.43484 39C5.43484 38.37 5.57484 37.82 5.85484 37.35C6.13484 36.88 6.50984 36.515 6.97984 36.255C7.45984 35.985 7.98984 35.85 8.56984 35.85C9.14984 35.85 9.66984 35.985 10.1298 36.255C10.5998 36.515 10.9698 36.88 11.2398 37.35C11.5198 37.82 11.6598 38.37 11.6598 39C11.6598 39.6 11.5198 40.14 11.2398 40.62C10.9698 41.09 10.5998 41.465 10.1298 41.745C9.66984 42.015 9.14984 42.15 8.56984 42.15ZM8.56984 41.235C8.96984 41.235 9.31984 41.135 9.61984 40.935C9.92984 40.725 10.1698 40.45 10.3398 40.11C10.5098 39.77 10.5948 39.4 10.5948 39C10.5948 38.36 10.4048 37.83 10.0248 37.41C9.64484 36.99 9.15984 36.78 8.56984 36.78C7.96984 36.78 7.47984 36.99 7.09984 37.41C6.71984 37.83 6.52984 38.36 6.52984 39C6.52984 39.4 6.61484 39.77 6.78484 40.11C6.95484 40.45 7.19484 40.725 7.50484 40.935C7.81484 41.135 8.16984 41.235 8.56984 41.235ZM12.9925 42.15C12.8625 42.15 12.7425 42.1 12.6325 42C12.5225 41.91 12.4675 41.8 12.4675 41.67V36.825C12.4675 36.555 12.5525 36.35 12.7225 36.21C12.8925 36.07 13.0825 36 13.2925 36H14.8825C15.2225 36 15.5375 36.07 15.8275 36.21C16.1275 36.34 16.3675 36.535 16.5475 36.795C16.7275 37.055 16.8175 37.375 16.8175 37.755C16.8175 38.345 16.6275 38.815 16.2475 39.165C15.8775 39.515 15.4275 39.69 14.8975 39.69H13.8925C13.6425 39.69 13.5175 39.84 13.5175 40.14V41.67C13.5175 41.8 13.4625 41.91 13.3525 42C13.2525 42.1 13.1325 42.15 12.9925 42.15ZM13.8175 38.79H14.7325C14.9825 38.79 15.2225 38.715 15.4525 38.565C15.6925 38.415 15.8125 38.155 15.8125 37.785C15.8125 37.495 15.7025 37.28 15.4825 37.14C15.2725 36.99 15.0425 36.915 14.7925 36.915H13.8625C13.6125 36.915 13.4875 37.035 13.4875 37.275V38.385C13.4875 38.655 13.5975 38.79 13.8175 38.79ZM19.2863 42.15C19.1263 42.15 18.9963 42.105 18.8963 42.015C18.8063 41.925 18.7613 41.81 18.7613 41.67V37.305C18.7613 37.055 18.6313 36.93 18.3713 36.93H17.4263C17.1163 36.93 16.9613 36.775 16.9613 36.465C16.9613 36.155 17.1163 36 17.4263 36H21.1313C21.2713 36 21.3863 36.045 21.4763 36.135C21.5663 36.215 21.6113 36.325 21.6113 36.465C21.6113 36.605 21.5663 36.72 21.4763 36.81C21.3863 36.89 21.2713 36.93 21.1313 36.93H20.2013C19.9413 36.93 19.8113 37.055 19.8113 37.305V41.67C19.8113 41.81 19.7613 41.925 19.6613 42.015C19.5713 42.105 19.4463 42.15 19.2863 42.15ZM22.7975 42.15C22.6675 42.15 22.5475 42.105 22.4375 42.015C22.3275 41.935 22.2725 41.815 22.2725 41.655V36.42C22.2725 36.25 22.3275 36.125 22.4375 36.045C22.5475 35.965 22.6675 35.925 22.7975 35.925C22.9375 35.925 23.0575 35.965 23.1575 36.045C23.2675 36.125 23.3225 36.25 23.3225 36.42V41.655C23.3225 41.815 23.2675 41.935 23.1575 42.015C23.0575 42.105 22.9375 42.15 22.7975 42.15ZM27.3413 42.15C26.7613 42.15 26.2313 42.015 25.7513 41.745C25.2813 41.465 24.9063 41.09 24.6263 40.62C24.3463 40.14 24.2063 39.6 24.2063 39C24.2063 38.37 24.3463 37.82 24.6263 37.35C24.9063 36.88 25.2813 36.515 25.7513 36.255C26.2313 35.985 26.7613 35.85 27.3413 35.85C27.9213 35.85 28.4413 35.985 28.9013 36.255C29.3713 36.515 29.7413 36.88 30.0113 37.35C30.2913 37.82 30.4313 38.37 30.4313 39C30.4313 39.6 30.2913 40.14 30.0113 40.62C29.7413 41.09 29.3713 41.465 28.9013 41.745C28.4413 42.015 27.9213 42.15 27.3413 42.15ZM27.3413 41.235C27.7413 41.235 28.0913 41.135 28.3913 40.935C28.7013 40.725 28.9413 40.45 29.1113 40.11C29.2813 39.77 29.3663 39.4 29.3663 39C29.3663 38.36 29.1763 37.83 28.7963 37.41C28.4163 36.99 27.9313 36.78 27.3413 36.78C26.7413 36.78 26.2513 36.99 25.8713 37.41C25.4913 37.83 25.3013 38.36 25.3013 39C25.3013 39.4 25.3863 39.77 25.5563 40.11C25.7263 40.45 25.9663 40.725 26.2763 40.935C26.5863 41.135 26.9413 41.235 27.3413 41.235ZM31.7639 42.15C31.6339 42.15 31.5139 42.11 31.4039 42.03C31.2939 41.95 31.2389 41.83 31.2389 41.67V36.615C31.2389 36.385 31.3089 36.215 31.4489 36.105C31.5989 35.985 31.7589 35.925 31.9289 35.925C32.1889 35.925 32.3789 36.025 32.4989 36.225L34.9739 40.11C35.0239 40.19 35.0789 40.23 35.1389 40.23C35.2289 40.23 35.2739 40.16 35.2739 40.02L35.2139 36.405C35.2139 36.245 35.2689 36.125 35.3789 36.045C35.4889 35.965 35.6089 35.925 35.7389 35.925C35.8689 35.925 35.9889 35.965 36.0989 36.045C36.2089 36.125 36.2639 36.245 36.2639 36.405V41.49C36.2639 41.71 36.1989 41.875 36.0689 41.985C35.9389 42.095 35.7889 42.15 35.6189 42.15C35.4989 42.15 35.3789 42.12 35.2589 42.06C35.1489 42.01 35.0539 41.925 34.9739 41.805L32.5439 38.025C32.4939 37.945 32.4389 37.905 32.3789 37.905C32.2889 37.905 32.2439 37.975 32.2439 38.115L32.2889 41.67C32.2889 41.83 32.2339 41.95 32.1239 42.03C32.0239 42.11 31.9039 42.15 31.7639 42.15ZM39.321 42.15C38.881 42.15 38.456 42.075 38.046 41.925C37.646 41.775 37.336 41.56 37.116 41.28C37.036 41.17 36.996 41.06 36.996 40.95C36.996 40.82 37.046 40.71 37.146 40.62C37.256 40.52 37.376 40.47 37.506 40.47C37.576 40.47 37.646 40.485 37.716 40.515C37.786 40.535 37.841 40.575 37.881 40.635C38.041 40.825 38.256 40.975 38.526 41.085C38.806 41.195 39.096 41.25 39.396 41.25C39.746 41.25 40.031 41.165 40.251 40.995C40.481 40.825 40.596 40.6 40.596 40.32C40.596 40 40.461 39.775 40.191 39.645C39.931 39.505 39.626 39.405 39.276 39.345C38.956 39.285 38.631 39.2 38.301 39.09C37.971 38.97 37.696 38.8 37.476 38.58C37.256 38.35 37.146 38.04 37.146 37.65C37.146 37.12 37.346 36.7 37.746 36.39C38.156 36.08 38.701 35.925 39.381 35.925C39.741 35.925 40.071 35.98 40.371 36.09C40.671 36.19 40.921 36.33 41.121 36.51C41.241 36.61 41.301 36.735 41.301 36.885C41.301 37.005 41.256 37.11 41.166 37.2C41.076 37.29 40.971 37.335 40.851 37.335C40.731 37.335 40.616 37.295 40.506 37.215C40.186 36.955 39.791 36.825 39.321 36.825C38.521 36.825 38.121 37.095 38.121 37.635C38.121 37.895 38.241 38.075 38.481 38.175C38.731 38.265 39.066 38.36 39.486 38.46C39.686 38.5 39.901 38.56 40.131 38.64C40.371 38.71 40.601 38.815 40.821 38.955C41.041 39.085 41.221 39.265 41.361 39.495C41.501 39.715 41.571 39.995 41.571 40.335C41.571 40.875 41.361 41.315 40.941 41.655C40.531 41.985 39.991 42.15 39.321 42.15Z" fill="#000F6D"/>
<rect y="48" width="45" height="4" rx="2" fill="#000F6D"/>
<path d="M32.5895 10.7819L32.147 10.5357C32.0783 10.4975 32.0445 10.4783 32.0113 10.4584C31.6813 10.2607 31.4032 9.98764 31.2002 9.6609C31.1798 9.62802 31.1606 9.59355 31.1212 9.52541C31.0819 9.45735 31.062 9.42287 31.0437 9.38873C30.8616 9.0488 30.7632 8.66998 30.7573 8.28441C30.7567 8.24565 30.7568 8.20604 30.7581 8.1273L30.7668 7.61344C30.7806 6.79114 30.7876 6.37871 30.672 6.00858C30.5693 5.67981 30.3976 5.37699 30.1683 5.12001C29.9091 4.82953 29.5503 4.62229 28.8319 4.20834L28.2353 3.8645C27.5189 3.4517 27.1606 3.24523 26.7803 3.16652C26.4438 3.09688 26.0966 3.10011 25.7614 3.17537C25.383 3.26031 25.0292 3.47216 24.322 3.89562L24.318 3.89754L23.8905 4.15354C23.8229 4.19401 23.7886 4.21442 23.7548 4.23326C23.4185 4.42021 23.0431 4.52358 22.6586 4.53592C22.6198 4.53717 22.5804 4.53717 22.5016 4.53717C22.4232 4.53717 22.3821 4.53717 22.3435 4.53592C21.9581 4.52353 21.5819 4.41959 21.2452 4.23187C21.2112 4.21295 21.1776 4.19238 21.1099 4.15171L20.6796 3.89341C19.9676 3.46594 19.6111 3.25188 19.2306 3.16652C18.894 3.091 18.5456 3.08891 18.2079 3.15944C17.8266 3.23908 17.4682 3.44708 16.7515 3.86308L16.7483 3.8645L16.159 4.2065L16.1525 4.21049C15.4422 4.62274 15.0862 4.82937 14.8291 5.11867C14.601 5.37539 14.4306 5.67773 14.3285 6.00563C14.2132 6.37627 14.2193 6.78958 14.2332 7.61576L14.2419 8.12889C14.2432 8.20659 14.2454 8.24521 14.2449 8.28342C14.2391 8.66978 14.1394 9.04937 13.9568 9.38991C13.9387 9.42359 13.9193 9.45727 13.8804 9.52453C13.8415 9.59185 13.8227 9.62533 13.8025 9.65782C13.5986 9.9863 13.3193 10.261 12.9872 10.459C12.9543 10.4786 12.9197 10.4974 12.8517 10.5351L12.4148 10.7772C11.6879 11.18 11.3246 11.3816 11.0602 11.6685C10.8263 11.9223 10.6496 12.2233 10.5417 12.5512C10.4198 12.9218 10.4199 13.3373 10.4218 14.1684L10.4233 14.8476C10.4252 15.6731 10.4278 16.0856 10.55 16.4537C10.6581 16.7793 10.8335 17.0786 11.0661 17.3308C11.329 17.6159 11.6887 17.8163 12.4101 18.2176L12.8431 18.4585C12.9168 18.4995 12.9539 18.5197 12.9894 18.5411C13.3185 18.7392 13.5957 19.0132 13.7978 19.3398C13.8196 19.3751 13.8406 19.4117 13.8825 19.4849C13.9239 19.5573 13.9451 19.5934 13.9643 19.6297C14.1415 19.9652 14.2364 20.338 14.2428 20.7174C14.2435 20.7584 14.2429 20.7999 14.2415 20.8832L14.2332 21.3757C14.2192 22.2047 14.2131 22.6197 14.3292 22.9913C14.4318 23.3201 14.6033 23.6229 14.8327 23.8799C15.0919 24.1704 15.4512 24.3775 16.1696 24.7914L16.7662 25.1352C17.4826 25.548 17.8406 25.7542 18.2209 25.8329C18.5574 25.9026 18.9048 25.8999 19.24 25.8246C19.6189 25.7396 19.974 25.527 20.6832 25.1023L21.1107 24.8463C21.1784 24.8058 21.2126 24.7855 21.2465 24.7667C21.5827 24.5797 21.9577 24.4758 22.3423 24.4635C22.381 24.4622 22.4204 24.4622 22.4993 24.4622C22.5783 24.4622 22.6177 24.4622 22.6565 24.4635C23.0419 24.4759 23.4192 24.5801 23.7559 24.7678C23.7856 24.7844 23.8153 24.8022 23.8674 24.8335L24.3219 25.1064C25.034 25.5339 25.3898 25.7473 25.7703 25.8327C26.1069 25.9082 26.4556 25.9113 26.7933 25.8408C27.1745 25.7612 27.5336 25.5527 28.2499 25.137L28.8481 24.7898C29.5588 24.3773 29.9152 24.1705 30.1723 23.8811C30.4004 23.6243 30.5711 23.3221 30.6732 22.9942C30.7877 22.6263 30.7808 22.2162 30.7671 21.4019L30.7581 20.8708C30.7568 20.7931 30.7567 20.7545 30.7572 20.7163C30.763 20.3299 30.8611 19.95 31.0437 19.6095C31.0617 19.5759 31.0813 19.542 31.1201 19.4749C31.1589 19.4076 31.1791 19.374 31.1992 19.3415C31.4031 19.0131 31.6828 18.7381 32.0148 18.5401C32.0473 18.5208 32.0807 18.5023 32.1471 18.4655L32.1494 18.4644L32.5863 18.2223C33.3131 17.8195 33.6772 17.6177 33.9416 17.3308C34.1755 17.077 34.352 16.7764 34.4598 16.4486C34.581 16.0801 34.5801 15.667 34.5782 14.8457L34.5767 14.1519C34.5748 13.3264 34.5738 12.9139 34.4516 12.5459C34.3435 12.2202 34.1671 11.9209 33.9345 11.6687C33.6718 11.3838 33.3116 11.1834 32.5916 10.7829L32.5895 10.7819Z" stroke="#000F6D" stroke-width="2" stroke-linecap="round" stroke-linejoin="round"/>
<path d="M17.6671 14.5C17.6671 17.1693 19.831 19.3333 22.5004 19.3333C25.1698 19.3333 27.3337 17.1693 27.3337 14.5C27.3337 11.8306 25.1698 9.66662 22.5004 9.66662C19.831 9.66662 17.6671 11.8306 17.6671 14.5Z" stroke="#000F6D" stroke-width="2" stroke-linecap="round" stroke-linejoin="round"/>
</svg>
