<svg width="34" height="52" viewBox="0 0 34 52" fill="none" xmlns="http://www.w3.org/2000/svg">
<path d="M21.25 26.9167C21.25 23.7871 17.4444 21.25 12.75 21.25C8.05558 21.25 4.25 23.7871 4.25 26.9167M26.9167 22.6667V18.4167M26.9167 18.4167V14.1667M26.9167 18.4167H22.6667M26.9167 18.4167H31.1667M12.75 17C9.62039 17 7.08333 14.463 7.08333 11.3334C7.08333 8.20374 9.62039 5.66669 12.75 5.66669C15.8796 5.66669 18.4167 8.20374 18.4167 11.3334C18.4167 14.463 15.8796 17 12.75 17Z" stroke="#000F6D" stroke-width="2" stroke-linecap="round" stroke-linejoin="round"/>
<path d="M3.59162 43.15C3.46162 43.15 3.34162 43.1 3.23162 43C3.12162 42.91 3.06662 42.8 3.06662 42.67V37.825C3.06662 37.555 3.15162 37.35 3.32162 37.21C3.49162 37.07 3.68162 37 3.89162 37H5.48162C5.82162 37 6.13662 37.07 6.42662 37.21C6.72662 37.34 6.96662 37.535 7.14662 37.795C7.32662 38.055 7.41662 38.375 7.41662 38.755C7.41662 39.345 7.22662 39.815 6.84662 40.165C6.47662 40.515 6.02662 40.69 5.49662 40.69H4.49162C4.24162 40.69 4.11662 40.84 4.11662 41.14V42.67C4.11662 42.8 4.06162 42.91 3.95162 43C3.85162 43.1 3.73162 43.15 3.59162 43.15ZM4.41662 39.79H5.33162C5.58162 39.79 5.82162 39.715 6.05162 39.565C6.29162 39.415 6.41162 39.155 6.41162 38.785C6.41162 38.495 6.30162 38.28 6.08162 38.14C5.87162 37.99 5.64162 37.915 5.39162 37.915H4.46162C4.21162 37.915 4.08662 38.035 4.08662 38.275V39.385C4.08662 39.655 4.19662 39.79 4.41662 39.79ZM7.97103 43.15C7.84103 43.15 7.72603 43.105 7.62603 43.015C7.52603 42.925 7.47603 42.805 7.47603 42.655C7.47603 42.605 7.48603 42.54 7.50603 42.46L9.38103 37.375C9.45104 37.205 9.55604 37.075 9.69604 36.985C9.83604 36.895 9.98604 36.85 10.146 36.85C10.306 36.85 10.456 36.895 10.596 36.985C10.746 37.075 10.856 37.205 10.926 37.375L12.921 42.46C12.941 42.54 12.951 42.605 12.951 42.655C12.951 42.805 12.901 42.925 12.801 43.015C12.701 43.105 12.586 43.15 12.456 43.15C12.366 43.15 12.271 43.125 12.171 43.075C12.081 43.035 12.011 42.965 11.961 42.865L11.466 41.545C11.456 41.485 11.416 41.455 11.346 41.455H9.05103C8.98104 41.455 8.93604 41.485 8.91603 41.545L8.46603 42.865C8.41603 42.965 8.34103 43.035 8.24103 43.075C8.15103 43.125 8.06103 43.15 7.97103 43.15ZM9.50103 40.555H10.851C10.911 40.555 10.956 40.535 10.986 40.495C11.026 40.445 11.036 40.385 11.016 40.315L10.296 38.26C10.266 38.16 10.221 38.11 10.161 38.11C10.091 38.11 10.041 38.16 10.011 38.26L9.33604 40.33C9.31604 40.39 9.32104 40.445 9.35104 40.495C9.39104 40.535 9.44103 40.555 9.50103 40.555ZM15.5593 43.15C15.3993 43.15 15.2693 43.105 15.1693 43.015C15.0793 42.925 15.0343 42.81 15.0343 42.67V41.02C15.0343 40.78 14.9693 40.56 14.8393 40.36L13.0993 37.735C13.0393 37.645 13.0093 37.555 13.0093 37.465C13.0093 37.315 13.0693 37.19 13.1893 37.09C13.3093 36.98 13.4393 36.925 13.5793 36.925C13.6593 36.925 13.7343 36.94 13.8043 36.97C13.8743 37 13.9343 37.06 13.9843 37.15L15.4093 39.43C15.4493 39.5 15.4993 39.535 15.5593 39.535C15.6193 39.535 15.6693 39.5 15.7093 39.43L17.1343 37.15C17.1843 37.06 17.2443 37 17.3143 36.97C17.3943 36.94 17.4693 36.925 17.5393 36.925C17.6793 36.925 17.8093 36.98 17.9293 37.09C18.0493 37.19 18.1093 37.315 18.1093 37.465C18.1093 37.555 18.0793 37.645 18.0193 37.735L16.2793 40.36C16.1493 40.56 16.0843 40.78 16.0843 41.02V42.67C16.0843 42.81 16.0343 42.925 15.9343 43.015C15.8443 43.105 15.7193 43.15 15.5593 43.15ZM19.739 43C19.489 43 19.289 42.925 19.139 42.775C18.989 42.625 18.914 42.425 18.914 42.175V37.78C18.914 37.55 18.989 37.365 19.139 37.225C19.299 37.075 19.484 37 19.694 37H21.959C22.129 37 22.249 37.045 22.319 37.135C22.399 37.215 22.439 37.32 22.439 37.45C22.439 37.57 22.394 37.675 22.304 37.765C22.224 37.855 22.109 37.9 21.959 37.9H20.354C20.094 37.9 19.964 38.03 19.964 38.29V39.115C19.964 39.375 20.084 39.505 20.324 39.505H21.809C21.979 39.505 22.099 39.55 22.169 39.64C22.249 39.73 22.289 39.835 22.289 39.955C22.289 40.065 22.244 40.17 22.154 40.27C22.074 40.36 21.959 40.405 21.809 40.405H20.324C20.084 40.405 19.964 40.53 19.964 40.78V41.695C19.964 41.955 20.089 42.085 20.339 42.085H22.109C22.279 42.085 22.399 42.135 22.469 42.235C22.549 42.325 22.589 42.43 22.589 42.55C22.589 42.67 22.544 42.775 22.454 42.865C22.374 42.955 22.259 43 22.109 43H19.739ZM24.3037 43C24.0537 43 23.8537 42.925 23.7037 42.775C23.5537 42.625 23.4787 42.425 23.4787 42.175V37.78C23.4787 37.55 23.5537 37.365 23.7037 37.225C23.8637 37.075 24.0487 37 24.2587 37H26.5237C26.6937 37 26.8137 37.045 26.8837 37.135C26.9637 37.215 27.0037 37.32 27.0037 37.45C27.0037 37.57 26.9587 37.675 26.8687 37.765C26.7887 37.855 26.6737 37.9 26.5237 37.9H24.9187C24.6587 37.9 24.5287 38.03 24.5287 38.29V39.115C24.5287 39.375 24.6487 39.505 24.8887 39.505H26.3737C26.5437 39.505 26.6637 39.55 26.7337 39.64C26.8137 39.73 26.8537 39.835 26.8537 39.955C26.8537 40.065 26.8087 40.17 26.7187 40.27C26.6387 40.36 26.5237 40.405 26.3737 40.405H24.8887C24.6487 40.405 24.5287 40.53 24.5287 40.78V41.695C24.5287 41.955 24.6537 42.085 24.9037 42.085H26.6737C26.8437 42.085 26.9637 42.135 27.0337 42.235C27.1137 42.325 27.1537 42.43 27.1537 42.55C27.1537 42.67 27.1087 42.775 27.0187 42.865C26.9387 42.955 26.8237 43 26.6737 43H24.3037Z" fill="#000F6D"/>
</svg>
