<svg width="45" height="49" viewBox="0 0 45 49" fill="none" xmlns="http://www.w3.org/2000/svg">
<path d="M9.59162 38.4833C9.46162 38.4833 9.34162 38.4333 9.23162 38.3333C9.12162 38.2433 9.06662 38.1333 9.06662 38.0033V33.1583C9.06662 32.8883 9.15162 32.6833 9.32162 32.5433C9.49162 32.4033 9.68162 32.3333 9.89162 32.3333H11.4816C11.8216 32.3333 12.1366 32.4033 12.4266 32.5433C12.7266 32.6733 12.9666 32.8683 13.1466 33.1283C13.3266 33.3883 13.4166 33.7083 13.4166 34.0883C13.4166 34.6783 13.2266 35.1483 12.8466 35.4983C12.4766 35.8483 12.0266 36.0233 11.4966 36.0233H10.4916C10.2416 36.0233 10.1166 36.1733 10.1166 36.4733V38.0033C10.1166 38.1333 10.0616 38.2433 9.95162 38.3333C9.85162 38.4333 9.73162 38.4833 9.59162 38.4833ZM10.4166 35.1233H11.3316C11.5816 35.1233 11.8216 35.0483 12.0516 34.8983C12.2916 34.7483 12.4116 34.4883 12.4116 34.1183C12.4116 33.8283 12.3016 33.6133 12.0816 33.4733C11.8716 33.3233 11.6416 33.2483 11.3916 33.2483H10.4616C10.2116 33.2483 10.0866 33.3683 10.0866 33.6083V34.7183C10.0866 34.9883 10.1966 35.1233 10.4166 35.1233ZM13.971 38.4833C13.841 38.4833 13.726 38.4383 13.626 38.3483C13.526 38.2583 13.476 38.1383 13.476 37.9883C13.476 37.9383 13.486 37.8733 13.506 37.7933L15.381 32.7083C15.451 32.5383 15.556 32.4083 15.696 32.3183C15.836 32.2283 15.986 32.1833 16.146 32.1833C16.306 32.1833 16.456 32.2283 16.596 32.3183C16.746 32.4083 16.856 32.5383 16.926 32.7083L18.921 37.7933C18.941 37.8733 18.951 37.9383 18.951 37.9883C18.951 38.1383 18.901 38.2583 18.801 38.3483C18.701 38.4383 18.586 38.4833 18.456 38.4833C18.366 38.4833 18.271 38.4583 18.171 38.4083C18.081 38.3683 18.011 38.2983 17.961 38.1983L17.466 36.8783C17.456 36.8183 17.416 36.7883 17.346 36.7883H15.051C14.981 36.7883 14.936 36.8183 14.916 36.8783L14.466 38.1983C14.416 38.2983 14.341 38.3683 14.241 38.4083C14.151 38.4583 14.061 38.4833 13.971 38.4833ZM15.501 35.8883H16.851C16.911 35.8883 16.956 35.8683 16.986 35.8283C17.026 35.7783 17.036 35.7183 17.016 35.6483L16.296 33.5933C16.266 33.4933 16.221 33.4433 16.161 33.4433C16.091 33.4433 16.041 33.4933 16.011 33.5933L15.336 35.6633C15.316 35.7233 15.321 35.7783 15.351 35.8283C15.391 35.8683 15.441 35.8883 15.501 35.8883ZM21.5593 38.4833C21.3993 38.4833 21.2693 38.4383 21.1693 38.3483C21.0793 38.2583 21.0343 38.1433 21.0343 38.0033V36.3533C21.0343 36.1133 20.9693 35.8933 20.8393 35.6933L19.0993 33.0683C19.0393 32.9783 19.0093 32.8883 19.0093 32.7983C19.0093 32.6483 19.0693 32.5233 19.1893 32.4233C19.3093 32.3133 19.4393 32.2583 19.5793 32.2583C19.6593 32.2583 19.7343 32.2733 19.8043 32.3033C19.8743 32.3333 19.9343 32.3933 19.9843 32.4833L21.4093 34.7633C21.4493 34.8333 21.4993 34.8683 21.5593 34.8683C21.6193 34.8683 21.6693 34.8333 21.7093 34.7633L23.1343 32.4833C23.1843 32.3933 23.2443 32.3333 23.3143 32.3033C23.3943 32.2733 23.4693 32.2583 23.5393 32.2583C23.6793 32.2583 23.8093 32.3133 23.9293 32.4233C24.0493 32.5233 24.1093 32.6483 24.1093 32.7983C24.1093 32.8883 24.0793 32.9783 24.0193 33.0683L22.2793 35.6933C22.1493 35.8933 22.0843 36.1133 22.0843 36.3533V38.0033C22.0843 38.1433 22.0343 38.2583 21.9343 38.3483C21.8443 38.4383 21.7193 38.4833 21.5593 38.4833ZM25.739 38.3333C25.489 38.3333 25.289 38.2583 25.139 38.1083C24.989 37.9583 24.914 37.7583 24.914 37.5083V33.1133C24.914 32.8833 24.989 32.6983 25.139 32.5583C25.299 32.4083 25.484 32.3333 25.694 32.3333H27.959C28.129 32.3333 28.249 32.3783 28.319 32.4683C28.399 32.5483 28.439 32.6533 28.439 32.7833C28.439 32.9033 28.394 33.0083 28.304 33.0983C28.224 33.1883 28.109 33.2333 27.959 33.2333H26.354C26.094 33.2333 25.964 33.3633 25.964 33.6233V34.4483C25.964 34.7083 26.084 34.8383 26.324 34.8383H27.809C27.979 34.8383 28.099 34.8833 28.169 34.9733C28.249 35.0633 28.289 35.1683 28.289 35.2883C28.289 35.3983 28.244 35.5033 28.154 35.6033C28.074 35.6933 27.959 35.7383 27.809 35.7383H26.324C26.084 35.7383 25.964 35.8633 25.964 36.1133V37.0283C25.964 37.2883 26.089 37.4183 26.339 37.4183H28.109C28.279 37.4183 28.399 37.4683 28.469 37.5683C28.549 37.6583 28.589 37.7633 28.589 37.8833C28.589 38.0033 28.544 38.1083 28.454 38.1983C28.374 38.2883 28.259 38.3333 28.109 38.3333H25.739ZM30.3037 38.3333C30.0537 38.3333 29.8537 38.2583 29.7037 38.1083C29.5537 37.9583 29.4787 37.7583 29.4787 37.5083V33.1133C29.4787 32.8833 29.5537 32.6983 29.7037 32.5583C29.8637 32.4083 30.0487 32.3333 30.2587 32.3333H32.5237C32.6937 32.3333 32.8137 32.3783 32.8837 32.4683C32.9637 32.5483 33.0037 32.6533 33.0037 32.7833C33.0037 32.9033 32.9587 33.0083 32.8687 33.0983C32.7887 33.1883 32.6737 33.2333 32.5237 33.2333H30.9187C30.6587 33.2333 30.5287 33.3633 30.5287 33.6233V34.4483C30.5287 34.7083 30.6487 34.8383 30.8887 34.8383H32.3737C32.5437 34.8383 32.6637 34.8833 32.7337 34.9733C32.8137 35.0633 32.8537 35.1683 32.8537 35.2883C32.8537 35.3983 32.8087 35.5033 32.7187 35.6033C32.6387 35.6933 32.5237 35.7383 32.3737 35.7383H30.8887C30.6487 35.7383 30.5287 35.8633 30.5287 36.1133V37.0283C30.5287 37.2883 30.6537 37.4183 30.9037 37.4183H32.6737C32.8437 37.4183 32.9637 37.4683 33.0337 37.5683C33.1137 37.6583 33.1537 37.7633 33.1537 37.8833C33.1537 38.0033 33.1087 38.1083 33.0187 38.1983C32.9387 38.2883 32.8237 38.3333 32.6737 38.3333H30.3037Z" fill="#000F6D"/>
<rect y="44.3333" width="45" height="4" rx="2" fill="#000F6D"/>
<path d="M27.25 22.25C27.25 19.1204 23.4444 16.5833 18.75 16.5833C14.0556 16.5833 10.25 19.1204 10.25 22.25M32.9167 18V13.75M32.9167 13.75V9.5M32.9167 13.75H28.6667M32.9167 13.75H37.1667M18.75 12.3333C15.6204 12.3333 13.0833 9.79628 13.0833 6.66667C13.0833 3.53705 15.6204 1 18.75 1C21.8796 1 24.4167 3.53705 24.4167 6.66667C24.4167 9.79628 21.8796 12.3333 18.75 12.3333Z" stroke="#000F6D" stroke-width="2" stroke-linecap="round" stroke-linejoin="round"/>
</svg>
