<svg width="45" height="54" viewBox="0 0 45 54" fill="none" xmlns="http://www.w3.org/2000/svg">
<path d="M18.6251 5.75L22.5001 1.375M22.5001 1.375L26.3751 5.75M22.5001 1.375V15.9583M16.042 11.5833C14.8384 11.5833 14.2365 11.5833 13.7618 11.8054C13.1288 12.1014 12.6256 12.6695 12.3634 13.3842C12.1667 13.9202 12.1667 14.5993 12.1667 15.9583V22.9583C12.1667 24.5918 12.1667 25.408 12.4483 26.0319C12.696 26.5807 13.0909 27.0278 13.577 27.3074C14.1291 27.625 14.8521 27.625 16.2961 27.625H28.7047C30.1487 27.625 30.8707 27.625 31.4228 27.3074C31.9088 27.0278 32.3045 26.5807 32.5521 26.0319C32.8334 25.4086 32.8334 24.5931 32.8334 22.9628V15.9583C32.8334 14.5993 32.8333 13.9202 32.6366 13.3842C32.3744 12.6695 31.8717 12.1014 31.2387 11.8054C30.7639 11.5833 30.1621 11.5833 28.9584 11.5833" stroke="#000F6D" stroke-width="2" stroke-linecap="round" stroke-linejoin="round"/>
<path d="M14.6691 43.15C14.2291 43.15 13.8041 43.075 13.3941 42.925C12.9941 42.775 12.6841 42.56 12.4641 42.28C12.3841 42.17 12.3441 42.06 12.3441 41.95C12.3441 41.82 12.3941 41.71 12.4941 41.62C12.6041 41.52 12.7241 41.47 12.8541 41.47C12.9241 41.47 12.9941 41.485 13.0641 41.515C13.1341 41.535 13.1891 41.575 13.2291 41.635C13.3891 41.825 13.6041 41.975 13.8741 42.085C14.1541 42.195 14.4441 42.25 14.7441 42.25C15.0941 42.25 15.3791 42.165 15.5991 41.995C15.8291 41.825 15.9441 41.6 15.9441 41.32C15.9441 41 15.8091 40.775 15.5391 40.645C15.2791 40.505 14.9741 40.405 14.6241 40.345C14.3041 40.285 13.9791 40.2 13.6491 40.09C13.3191 39.97 13.0441 39.8 12.8241 39.58C12.6041 39.35 12.4941 39.04 12.4941 38.65C12.4941 38.12 12.6941 37.7 13.0941 37.39C13.5041 37.08 14.0491 36.925 14.7291 36.925C15.0891 36.925 15.4191 36.98 15.7191 37.09C16.0191 37.19 16.2691 37.33 16.4691 37.51C16.5891 37.61 16.6491 37.735 16.6491 37.885C16.6491 38.005 16.6041 38.11 16.5141 38.2C16.4241 38.29 16.3191 38.335 16.1991 38.335C16.0791 38.335 15.9641 38.295 15.8541 38.215C15.5341 37.955 15.1391 37.825 14.6691 37.825C13.8691 37.825 13.4691 38.095 13.4691 38.635C13.4691 38.895 13.5891 39.075 13.8291 39.175C14.0791 39.265 14.4141 39.36 14.8341 39.46C15.0341 39.5 15.2491 39.56 15.4791 39.64C15.7191 39.71 15.9491 39.815 16.1691 39.955C16.3891 40.085 16.5691 40.265 16.7091 40.495C16.8491 40.715 16.9191 40.995 16.9191 41.335C16.9191 41.875 16.7091 42.315 16.2891 42.655C15.8791 42.985 15.3391 43.15 14.6691 43.15ZM18.5482 43C18.2982 43 18.0982 42.925 17.9482 42.775C17.7982 42.625 17.7232 42.425 17.7232 42.175V37.78C17.7232 37.55 17.7982 37.365 17.9482 37.225C18.1082 37.075 18.2932 37 18.5032 37H20.7682C20.9382 37 21.0582 37.045 21.1282 37.135C21.2082 37.215 21.2482 37.32 21.2482 37.45C21.2482 37.57 21.2032 37.675 21.1132 37.765C21.0332 37.855 20.9182 37.9 20.7682 37.9H19.1632C18.9032 37.9 18.7732 38.03 18.7732 38.29V39.115C18.7732 39.375 18.8932 39.505 19.1332 39.505H20.6182C20.7882 39.505 20.9082 39.55 20.9782 39.64C21.0582 39.73 21.0982 39.835 21.0982 39.955C21.0982 40.065 21.0532 40.17 20.9632 40.27C20.8832 40.36 20.7682 40.405 20.6182 40.405H19.1332C18.8932 40.405 18.7732 40.53 18.7732 40.78V41.695C18.7732 41.955 18.8982 42.085 19.1482 42.085H20.9182C21.0882 42.085 21.2082 42.135 21.2782 42.235C21.3582 42.325 21.3982 42.43 21.3982 42.55C21.3982 42.67 21.3532 42.775 21.2632 42.865C21.1832 42.955 21.0682 43 20.9182 43H18.5482ZM22.8129 43.15C22.6829 43.15 22.5629 43.11 22.4529 43.03C22.3429 42.95 22.2879 42.83 22.2879 42.67V37.615C22.2879 37.385 22.3579 37.215 22.4979 37.105C22.6479 36.985 22.8079 36.925 22.9779 36.925C23.2379 36.925 23.4279 37.025 23.5479 37.225L26.0229 41.11C26.0729 41.19 26.1279 41.23 26.1879 41.23C26.2779 41.23 26.3229 41.16 26.3229 41.02L26.2629 37.405C26.2629 37.245 26.3179 37.125 26.4279 37.045C26.5379 36.965 26.6579 36.925 26.7879 36.925C26.9179 36.925 27.0379 36.965 27.1479 37.045C27.2579 37.125 27.3129 37.245 27.3129 37.405V42.49C27.3129 42.71 27.2479 42.875 27.1179 42.985C26.9879 43.095 26.8379 43.15 26.6679 43.15C26.5479 43.15 26.4279 43.12 26.3079 43.06C26.1979 43.01 26.1029 42.925 26.0229 42.805L23.5929 39.025C23.5429 38.945 23.4879 38.905 23.4279 38.905C23.3379 38.905 23.2929 38.975 23.2929 39.115L23.3379 42.67C23.3379 42.83 23.2829 42.95 23.1729 43.03C23.0729 43.11 22.9529 43.15 22.8129 43.15ZM29.29 43C29.08 43 28.88 42.93 28.69 42.79C28.51 42.65 28.42 42.45 28.42 42.19V37.78C28.42 37.55 28.495 37.365 28.645 37.225C28.805 37.075 28.99 37 29.2 37H30.55C31.15 37 31.675 37.125 32.125 37.375C32.585 37.615 32.94 37.96 33.19 38.41C33.45 38.86 33.58 39.4 33.58 40.03C33.58 40.58 33.46 41.08 33.22 41.53C32.99 41.98 32.665 42.34 32.245 42.61C31.835 42.87 31.36 43 30.82 43H29.29ZM29.905 42.07H30.565C31.215 42.07 31.71 41.9 32.05 41.56C32.39 41.21 32.555 40.7 32.545 40.03C32.535 39.35 32.36 38.83 32.02 38.47C31.68 38.11 31.19 37.93 30.55 37.93H29.92C29.62 37.93 29.47 38.08 29.47 38.38V41.62C29.47 41.92 29.615 42.07 29.905 42.07Z" fill="#000F6D"/>
<rect y="50" width="45" height="4" rx="2" fill="#000F6D"/>
</svg>
