<svg width="31" height="55" viewBox="0 0 31 55" fill="none" xmlns="http://www.w3.org/2000/svg">
<path d="M11.6251 8.75L15.5001 4.375M15.5001 4.375L19.3751 8.75M15.5001 4.375V18.9583M9.04205 14.5833C7.83836 14.5833 7.23652 14.5833 6.76178 14.8054C6.12879 15.1014 5.62559 15.6695 5.36339 16.3842C5.16675 16.9202 5.16675 17.5993 5.16675 18.9583V25.9583C5.16675 27.5918 5.16675 28.408 5.44831 29.0319C5.69599 29.5807 6.0909 30.0278 6.57699 30.3074C7.12905 30.625 7.85212 30.625 9.29609 30.625H21.7047C23.1487 30.625 23.8707 30.625 24.4228 30.3074C24.9088 30.0278 25.3045 29.5807 25.5521 29.0319C25.8334 28.4086 25.8334 27.5931 25.8334 25.9628V18.9583C25.8334 17.5993 25.8333 16.9202 25.6366 16.3842C25.3744 15.6695 24.8717 15.1014 24.2387 14.8054C23.7639 14.5833 23.1621 14.5833 21.9584 14.5833" stroke="#000F6D" stroke-width="2" stroke-linecap="round" stroke-linejoin="round"/>
<path d="M7.66908 46.15C7.22908 46.15 6.80408 46.075 6.39408 45.925C5.99408 45.775 5.68408 45.56 5.46408 45.28C5.38408 45.17 5.34408 45.06 5.34408 44.95C5.34408 44.82 5.39408 44.71 5.49408 44.62C5.60408 44.52 5.72408 44.47 5.85408 44.47C5.92408 44.47 5.99408 44.485 6.06408 44.515C6.13408 44.535 6.18908 44.575 6.22908 44.635C6.38908 44.825 6.60408 44.975 6.87408 45.085C7.15408 45.195 7.44408 45.25 7.74408 45.25C8.09408 45.25 8.37908 45.165 8.59908 44.995C8.82908 44.825 8.94408 44.6 8.94408 44.32C8.94408 44 8.80908 43.775 8.53908 43.645C8.27908 43.505 7.97408 43.405 7.62408 43.345C7.30408 43.285 6.97908 43.2 6.64908 43.09C6.31908 42.97 6.04408 42.8 5.82408 42.58C5.60408 42.35 5.49408 42.04 5.49408 41.65C5.49408 41.12 5.69408 40.7 6.09408 40.39C6.50408 40.08 7.04908 39.925 7.72908 39.925C8.08908 39.925 8.41908 39.98 8.71908 40.09C9.01908 40.19 9.26908 40.33 9.46908 40.51C9.58908 40.61 9.64908 40.735 9.64908 40.885C9.64908 41.005 9.60408 41.11 9.51408 41.2C9.42408 41.29 9.31908 41.335 9.19908 41.335C9.07908 41.335 8.96408 41.295 8.85408 41.215C8.53408 40.955 8.13908 40.825 7.66908 40.825C6.86908 40.825 6.46908 41.095 6.46908 41.635C6.46908 41.895 6.58908 42.075 6.82908 42.175C7.07908 42.265 7.41408 42.36 7.83408 42.46C8.03408 42.5 8.24908 42.56 8.47908 42.64C8.71908 42.71 8.94908 42.815 9.16908 42.955C9.38908 43.085 9.56908 43.265 9.70908 43.495C9.84908 43.715 9.91908 43.995 9.91908 44.335C9.91908 44.875 9.70908 45.315 9.28908 45.655C8.87908 45.985 8.33908 46.15 7.66908 46.15ZM11.5482 46C11.2982 46 11.0982 45.925 10.9482 45.775C10.7982 45.625 10.7232 45.425 10.7232 45.175V40.78C10.7232 40.55 10.7982 40.365 10.9482 40.225C11.1082 40.075 11.2932 40 11.5032 40H13.7682C13.9382 40 14.0582 40.045 14.1282 40.135C14.2082 40.215 14.2482 40.32 14.2482 40.45C14.2482 40.57 14.2032 40.675 14.1132 40.765C14.0332 40.855 13.9182 40.9 13.7682 40.9H12.1632C11.9032 40.9 11.7732 41.03 11.7732 41.29V42.115C11.7732 42.375 11.8932 42.505 12.1332 42.505H13.6182C13.7882 42.505 13.9082 42.55 13.9782 42.64C14.0582 42.73 14.0982 42.835 14.0982 42.955C14.0982 43.065 14.0532 43.17 13.9632 43.27C13.8832 43.36 13.7682 43.405 13.6182 43.405H12.1332C11.8932 43.405 11.7732 43.53 11.7732 43.78V44.695C11.7732 44.955 11.8982 45.085 12.1482 45.085H13.9182C14.0882 45.085 14.2082 45.135 14.2782 45.235C14.3582 45.325 14.3982 45.43 14.3982 45.55C14.3982 45.67 14.3532 45.775 14.2632 45.865C14.1832 45.955 14.0682 46 13.9182 46H11.5482ZM15.8129 46.15C15.6829 46.15 15.5629 46.11 15.4529 46.03C15.3429 45.95 15.2879 45.83 15.2879 45.67V40.615C15.2879 40.385 15.3579 40.215 15.4979 40.105C15.6479 39.985 15.8079 39.925 15.9779 39.925C16.2379 39.925 16.4279 40.025 16.5479 40.225L19.0229 44.11C19.0729 44.19 19.1279 44.23 19.1879 44.23C19.2779 44.23 19.3229 44.16 19.3229 44.02L19.2629 40.405C19.2629 40.245 19.3179 40.125 19.4279 40.045C19.5379 39.965 19.6579 39.925 19.7879 39.925C19.9179 39.925 20.0379 39.965 20.1479 40.045C20.2579 40.125 20.3129 40.245 20.3129 40.405V45.49C20.3129 45.71 20.2479 45.875 20.1179 45.985C19.9879 46.095 19.8379 46.15 19.6679 46.15C19.5479 46.15 19.4279 46.12 19.3079 46.06C19.1979 46.01 19.1029 45.925 19.0229 45.805L16.5929 42.025C16.5429 41.945 16.4879 41.905 16.4279 41.905C16.3379 41.905 16.2929 41.975 16.2929 42.115L16.3379 45.67C16.3379 45.83 16.2829 45.95 16.1729 46.03C16.0729 46.11 15.9529 46.15 15.8129 46.15ZM22.29 46C22.08 46 21.88 45.93 21.69 45.79C21.51 45.65 21.42 45.45 21.42 45.19V40.78C21.42 40.55 21.495 40.365 21.645 40.225C21.805 40.075 21.99 40 22.2 40H23.55C24.15 40 24.675 40.125 25.125 40.375C25.585 40.615 25.94 40.96 26.19 41.41C26.45 41.86 26.58 42.4 26.58 43.03C26.58 43.58 26.46 44.08 26.22 44.53C25.99 44.98 25.665 45.34 25.245 45.61C24.835 45.87 24.36 46 23.82 46H22.29ZM22.905 45.07H23.565C24.215 45.07 24.71 44.9 25.05 44.56C25.39 44.21 25.555 43.7 25.545 43.03C25.535 42.35 25.36 41.83 25.02 41.47C24.68 41.11 24.19 40.93 23.55 40.93H22.92C22.62 40.93 22.47 41.08 22.47 41.38V44.62C22.47 44.92 22.615 45.07 22.905 45.07Z" fill="#000F6D"/>
</svg>
